# xmcd
#
# Track frame offsets:
#	150
#	24080
#	50287
#	62487
#	74630
#	105139
#	138827
#	182797
#	206102
#
# Disc length: 3424 seconds
#
# Revision: 1
# Processed by: cddbd v1.5.1PL0 Copyright (c) Steve Scherf et al.
# Submitted via: CDex 1.50Beta5
#
DISCID=740d5e09
DTITLE=ショスタコーヴィチ - 交響曲第9番 op.90(ライブ)
DYEAR=1900
DGENRE=Classical
TTITLE0=第1楽章 アレグロ
TTITLE1=第2楽章 モデラート
TTITLE2=第3楽章 プレスト
TTITLE3=第4楽章 ラルゴ
TTITLE4=第5楽章 アレグレット‐アレグロ
TTITLE5=第5番 ハ短調 作品67 「運命」 第1楽章 アレグロ・コン・ブリオ
TTITLE6=第2楽章 アンダンテ・コン・モート
TTITLE7=第3楽章 アレグロ
TTITLE8=第4楽章 アレグロ
EXTD=
EXTT0=
EXTT1=
EXTT2=
EXTT3=
EXTT4=
EXTT5=
EXTT6=
EXTT7=
EXTT8=
PLAYORDER=
